<svg width="256" height="132" viewBox="0 0 256 132" fill="none" xmlns="http://www.w3.org/2000/svg">
<line y1="72" x2="256" y2="72" stroke="black" stroke-width="6"/>
<path d="M83.6 99.9C84.7333 101.567 85.9667 102.9 87.3 103.9C88.7 104.833 90.4 105.533 92.4 106V108C89.2 107.8 85.2 107.7 80.4 107.7C76.8 107.7 73.3667 107.8 70.1 108V106C71.7 105.933 72.8667 105.733 73.6 105.4C74.3333 105.067 74.7 104.567 74.7 103.9C74.7 103.233 74.3667 102.433 73.7 101.5L59.1 79.5C57.1667 76.5667 55.5333 74.6667 54.2 73.8C52.8667 72.8667 51 72.3333 48.6 72.2V97.4C48.6 99.9333 48.8 101.767 49.2 102.9C49.6 104.033 50.3333 104.8 51.4 105.2C52.5333 105.6 54.3 105.867 56.7 106V108C53.6333 107.8 49.4 107.7 44 107.7C38.2667 107.7 34 107.8 31.2 108V106C33.6 105.867 35.3333 105.6 36.4 105.2C37.5333 104.8 38.3 104.033 38.7 102.9C39.1 101.767 39.3 99.9333 39.3 97.4V47.8C39.3 45.2667 39.1 43.4333 38.7 42.3C38.3 41.1667 37.5333 40.4 36.4 40C35.3333 39.6 33.6 39.3333 31.2 39.2V37.2C34 37.4 38.2667 37.5 44 37.5C49.3333 37.5 53.5667 37.4 56.7 37.2V39.2C54.3 39.3333 52.5333 39.6 51.4 40C50.3333 40.4 49.6 41.1667 49.2 42.3C48.8 43.4333 48.6 45.2667 48.6 47.8V70.2C53.4667 70 57.2667 68.1333 60 64.6L69.6 52.4C73 48.2 74.7 45 74.7 42.8C74.7 40.4667 72.6333 39.2667 68.5 39.2V37.2C72.3 37.4 76.1333 37.5 80 37.5C83.6667 37.5 86.5 37.4 88.5 37.2V39.2C86.3 39.5333 84.2333 40.2667 82.3 41.4C80.3667 42.4667 78.5 44.1667 76.7 46.5L60.4 67.4L83.6 99.9ZM175.427 39.2C173.027 39.3333 171.261 39.6 170.127 40C169.061 40.4 168.327 41.1667 167.927 42.3C167.527 43.4333 167.327 45.2667 167.327 47.8V97.4C167.327 99.9333 167.527 101.767 167.927 102.9C168.327 104.033 169.061 104.8 170.127 105.2C171.261 105.6 173.027 105.867 175.427 106V108C172.361 107.8 168.127 107.7 162.727 107.7C156.994 107.7 152.727 107.8 149.927 108V106C152.327 105.867 154.061 105.6 155.127 105.2C156.261 104.8 157.027 104.033 157.427 102.9C157.827 101.767 158.027 99.9333 158.027 97.4V43.8L133.927 108.5H132.327L107.127 43.6V96.4C107.127 99 107.327 100.933 107.727 102.2C108.194 103.467 109.061 104.4 110.327 105C111.594 105.533 113.561 105.867 116.227 106V108C113.827 107.8 110.427 107.7 106.027 107.7C102.027 107.7 98.9273 107.8 96.7273 108V106C99.0607 105.867 100.794 105.533 101.927 105C103.061 104.4 103.827 103.467 104.227 102.2C104.627 100.867 104.827 98.9333 104.827 96.4V47.8C104.827 45.2667 104.627 43.4333 104.227 42.3C103.827 41.1667 103.061 40.4 101.927 40C100.861 39.6 99.1273 39.3333 96.7273 39.2V37.2C98.9273 37.4 102.027 37.5 106.027 37.5C109.494 37.5 112.327 37.4 114.527 37.2L136.527 95.1L158.027 37.5H162.727C168.127 37.5 172.361 37.4 175.427 37.2V39.2ZM205.237 36.1C208.17 36.1 210.47 36.4333 212.137 37.1C213.87 37.7 215.637 38.6 217.437 39.8C218.903 40.7333 220.037 41.2 220.837 41.2C221.437 41.2 221.903 40.8667 222.237 40.2C222.57 39.4667 222.837 38.3333 223.037 36.8H225.337C225.003 40.6667 224.837 47.4667 224.837 57.2H222.537C222.137 51.8 220.57 47.2667 217.837 43.6C215.17 39.8667 211.27 38 206.137 38C202.537 38 199.603 39.1 197.337 41.3C195.07 43.4333 193.937 46.2 193.937 49.6C193.937 52.1333 194.503 54.3333 195.637 56.2C196.837 58.0667 198.337 59.6667 200.137 61C201.937 62.3333 204.503 64.0333 207.837 66.1L210.737 67.9C214.937 70.5 218.237 72.8 220.637 74.8C223.103 76.7333 225.07 78.9667 226.537 81.5C228.003 84.0333 228.737 87 228.737 90.4C228.737 96.4667 226.737 101.167 222.737 104.5C218.737 107.767 213.67 109.4 207.537 109.4C204.337 109.4 201.703 109.067 199.637 108.4C197.637 107.733 195.703 106.833 193.837 105.7C192.37 104.767 191.237 104.3 190.437 104.3C189.837 104.3 189.37 104.667 189.037 105.4C188.703 106.067 188.437 107.167 188.237 108.7H185.937C186.203 105.033 186.337 97.0333 186.337 84.7H188.637C189.103 91.4333 190.77 96.9 193.637 101.1C196.503 105.3 200.903 107.4 206.837 107.4C210.437 107.4 213.503 106.3 216.037 104.1C218.57 101.833 219.837 98.5 219.837 94.1C219.837 90.3667 218.57 87.2 216.037 84.6C213.57 82 209.637 79.0667 204.237 75.8C200.303 73.4 197.103 71.2667 194.637 69.4C192.237 67.5333 190.27 65.3 188.737 62.7C187.203 60.0333 186.437 56.9333 186.437 53.4C186.437 47.8 188.237 43.5333 191.837 40.6C195.437 37.6 199.903 36.1 205.237 36.1Z" fill="black"/>
</svg>
